<svg xmlns="http://www.w3.org/2000/svg" xmlns:xlink="http://www.w3.org/1999/xlink" width="385.742" height="271.755" version="1"><defs><clipPath id="B"><path d="M734.331 28.346h79.212V84.22h-79.212V28.346z"/></clipPath><linearGradient x1="231.088" y1="213.375" x2="188.729" y2="148.497" gradientUnits="userSpaceOnUse" gradientTransform="translate(725.138 19.154) scale(.27943)" id="a"><stop offset="0" stop-color="#d3d3d3"/><stop offset=".368" stop-color="#4f4c4c"/><stop offset=".368" stop-color="#4f4c4c"/><stop offset=".813" stop-color="#b0afaf"/><stop offset="1" stop-color="#231f20"/></linearGradient><linearGradient x1="112.045" y1="166.301" x2="119.725" y2="183.891" gradientUnits="userSpaceOnUse" gradientTransform="translate(725.138 19.154) scale(.27943)" id="b"><stop offset="0" stop-color="#b2b1b1"/><stop offset=".2" stop-color="#b2b1b1"/><stop offset=".99" stop-color="#656263"/><stop offset=".99" stop-color="#656263"/><stop offset="1" stop-color="#656263"/></linearGradient><linearGradient x1="216.937" y1="208.542" x2="207.509" y2="209.433" gradientUnits="userSpaceOnUse" gradientTransform="translate(725.138 19.154) scale(.27943)" id="c"><stop offset="0" stop-color="#4f4c4c"/><stop offset=".359" stop-color="#fff"/><stop offset=".359" stop-color="#fff"/><stop offset=".824" stop-color="#4f4c4c"/><stop offset="1" stop-color="#393536"/></linearGradient><linearGradient x1="131.957" y1="157.35" x2="139.603" y2="174.862" gradientUnits="userSpaceOnUse" gradientTransform="translate(725.138 19.154) scale(.27943)" id="d"><stop offset="0" stop-color="#d3d3d3"/><stop offset=".368" stop-color="#b2b1b1"/><stop offset=".99" stop-color="#231f20"/><stop offset="1" stop-color="#231f20"/></linearGradient><linearGradient x1="207.619" y1="73.15" x2="68.775" y2="214.4" gradientUnits="userSpaceOnUse" gradientTransform="translate(725.138 19.154) scale(.27943)" id="e"><stop offset="0" stop-color="#918f90"/><stop offset=".121" stop-color="#9c9a9b"/><stop offset=".121" stop-color="#9c9a9b"/><stop offset=".17" stop-color="#7b7979"/><stop offset=".308" stop-color="#918f90"/><stop offset=".473" stop-color="#f4f4f4"/><stop offset=".841" stop-color="#7f7d7e"/><stop offset=".841" stop-color="#7f7d7e"/><stop offset=".962" stop-color="#4f4c4c"/><stop offset="1" stop-color="#4f4c4c"/></linearGradient><radialGradient fx="147.383" fy="196.201" cx="147.383" cy="196.201" r="31.581" gradientUnits="userSpaceOnUse" gradientTransform="translate(725.138 19.154) scale(.27943)" spreadMethod="pad" id="f"><stop offset="0" stop-color="#fff"/><stop offset=".467" stop-color="#fff"/><stop offset=".747" stop-color="#9c9a9b"/><stop offset=".747" stop-color="#9c9a9b"/><stop offset=".846" stop-color="#7b7979"/><stop offset="1" stop-color="#4f4c4c"/></radialGradient><radialGradient fx="154.475" fy="189.206" cx="154.475" cy="189.206" r="11.153" gradientUnits="userSpaceOnUse" gradientTransform="matrix(.27943 0 0 .26927 725.138 24.762)" spreadMethod="pad" id="g"><stop offset="0" stop-color="#fff"/><stop offset=".228" stop-color="#fff"/><stop offset="1" stop-color="#231f20"/></radialGradient><radialGradient fx="147.486" fy="219.954" cx="147.486" cy="219.954" r="13.143" gradientUnits="userSpaceOnUse" gradientTransform="translate(725.138 19.154) scale(.27943)" spreadMethod="pad" id="h"><stop offset="0" stop-color="#fff"/><stop offset=".571" stop-color="#f7f7f7"/><stop offset=".571" stop-color="#f7f7f7"/><stop offset=".863" stop-color="#231f20"/><stop offset="1" stop-color="#231f20"/></radialGradient><radialGradient fx="169.539" fy="194.333" cx="169.539" cy="194.333" r="43.539" gradientUnits="userSpaceOnUse" gradientTransform="translate(725.138 19.154) scale(.27943)" spreadMethod="pad" id="i"><stop offset="0" stop-color="#fff"/><stop offset=".253" stop-color="#fff"/><stop offset=".346" stop-color="#a7a6a6"/><stop offset=".346" stop-color="#a7a6a6"/><stop offset=".412" stop-color="#7b7979"/><stop offset=".473" stop-color="#4f4c4c"/><stop offset="1" stop-color="#4f4c4c"/></radialGradient><linearGradient x1="138.567" y1="169.025" x2="117.007" y2="163.635" gradientUnits="userSpaceOnUse" gradientTransform="translate(725.138 19.154) scale(.27943)" id="j"><stop offset="0" stop-color="#f4f4f4"/><stop offset=".258" stop-color="#bdbcbc"/><stop offset=".648" stop-color="#f4f4f4"/><stop offset=".896" stop-color="#fff"/><stop offset="1" stop-color="#fff"/></linearGradient><clipPath id="M"><path d="M734.331 28.346h79.212V84.22h-79.212V28.346z"/></clipPath><linearGradient x1="979.119" y1="-114.084" x2="1205.83" y2="-390.298" gradientUnits="userSpaceOnUse" gradientTransform="translate(643.669 95.584) scale(.12248)" id="k"><stop offset="0" stop-color="#fff"/><stop offset=".069" stop-color="#e3e2e2"/><stop offset=".156" stop-color="#fff"/><stop offset=".33" stop-color="#d3d3d3"/><stop offset=".33" stop-color="#d3d3d3"/><stop offset=".502" stop-color="#fff"/><stop offset=".98" stop-color="#bbbaba"/><stop offset=".98" stop-color="#bbbaba"/><stop offset="1" stop-color="#bbbaba"/></linearGradient><linearGradient x1="112.229" y1="200.091" x2="213.898" y2="103.525" gradientUnits="userSpaceOnUse" gradientTransform="translate(725.138 19.154) scale(.27943)" id="l"><stop offset="0" stop-color="#dedede"/><stop offset=".507" stop-color="#4f4c4c"/><stop offset="1" stop-color="#dedede"/></linearGradient><linearGradient x1="161.073" y1="153.416" x2="121.641" y2="94.465" gradientUnits="userSpaceOnUse" gradientTransform="translate(725.138 19.154) scale(.27943)" id="m"><stop offset="0" stop-color="#c8c7c8"/><stop offset=".1" stop-color="#fff"/><stop offset=".349" stop-color="#f0f0f0"/><stop offset=".538" stop-color="#fff"/><stop offset=".714" stop-color="#393536"/><stop offset=".841" stop-color="#fff"/><stop offset=".91" stop-color="#514e4f"/><stop offset="1" stop-color="#868484"/></linearGradient><linearGradient x1="156.856" y1="122.493" x2="167.226" y2="116.385" gradientUnits="userSpaceOnUse" gradientTransform="translate(725.138 19.154) scale(.27943)" id="n"><stop offset="0" stop-color="#fff"/><stop offset=".521" stop-color="#cfcece"/><stop offset=".521" stop-color="#cfcece"/><stop offset=".835" stop-color="#4f4c4c"/><stop offset="1" stop-color="#393536"/></linearGradient><linearGradient x1="162.557" y1="150.942" x2="173.545" y2="164.097" gradientUnits="userSpaceOnUse" gradientTransform="translate(725.138 19.154) scale(.27943)" id="o"><stop offset="0" stop-color="#fff"/><stop offset=".209" stop-color="#fff"/><stop offset=".5" stop-color="#dedede"/><stop offset=".5" stop-color="#dedede"/><stop offset=".945" stop-color="#9c9a9b"/><stop offset="1" stop-color="#959494"/></linearGradient><linearGradient x1="186.975" y1="224.346" x2="201.3" y2="209.691" gradientUnits="userSpaceOnUse" gradientTransform="translate(725.138 19.154) scale(.27943)" id="p"><stop offset="0" stop-color="#231f20"/><stop offset=".179" stop-color="#f4f4f4"/><stop offset=".579" stop-color="#444041"/><stop offset="1" stop-color="#231f20"/></linearGradient><linearGradient x1="188.748" y1="163.34" x2="205.044" y2="174.039" gradientUnits="userSpaceOnUse" gradientTransform="translate(725.138 19.154) scale(.27943)" id="q"><stop offset="0" stop-color="#231f20"/><stop offset=".179" stop-color="#f4f4f4"/><stop offset=".579" stop-color="#444041"/><stop offset="1" stop-color="#231f20"/></linearGradient><linearGradient x1="201.762" y1="215.475" x2="223.172" y2="215.475" gradientUnits="userSpaceOnUse" gradientTransform="translate(725.138 19.154) scale(.27943)" id="r"><stop offset="0" stop-color="#656263"/><stop offset=".286" stop-color="#d3d3d3"/><stop offset=".533" stop-color="#656263"/><stop offset=".758" stop-color="#393536"/><stop offset="1" stop-color="#231f20"/></linearGradient><linearGradient x1="114.376" y1="104.141" x2="163.744" y2="104.141" gradientUnits="userSpaceOnUse" gradientTransform="translate(725.138 19.154) scale(.27943)" id="s"><stop offset="0" stop-color="#231f20"/><stop offset=".179" stop-color="#9e9d9d"/><stop offset=".579" stop-color="#444041"/><stop offset="1" stop-color="#231f20"/></linearGradient><linearGradient x1="177.193" y1="123.087" x2="199.273" y2="123.087" gradientUnits="userSpaceOnUse" gradientTransform="translate(725.138 19.154) scale(.27943)" id="t"><stop offset="0" stop-color="#231f20"/><stop offset=".179" stop-color="#9e9d9d"/><stop offset=".579" stop-color="#444041"/><stop offset="1" stop-color="#231f20"/></linearGradient><linearGradient x1="191.977" y1="120.12" x2="232.533" y2="120.12" gradientUnits="userSpaceOnUse" gradientTransform="translate(725.138 19.154) scale(.27943)" id="u"><stop offset="0" stop-color="#231f20"/><stop offset=".179" stop-color="#9e9d9d"/><stop offset=".579" stop-color="#444041"/><stop offset="1" stop-color="#231f20"/></linearGradient><linearGradient x1="112.208" y1="159.734" x2="154.483" y2="159.734" gradientUnits="userSpaceOnUse" gradientTransform="translate(725.138 19.154) scale(.27943)" id="v"><stop offset="0" stop-color="#7b7979"/><stop offset=".179" stop-color="#d3d3d3"/><stop offset="1" stop-color="#231f20"/></linearGradient><linearGradient x1="113.141" y1="185.773" x2="127.816" y2="185.773" gradientUnits="userSpaceOnUse" gradientTransform="translate(725.138 19.154) scale(.27943)" id="w"><stop offset="0" stop-color="#444041"/><stop offset=".179" stop-color="#d3d3d3"/><stop offset="1" stop-color="#231f20"/></linearGradient><linearGradient x1="100.288" y1="163.527" x2="110.19" y2="163.527" gradientUnits="userSpaceOnUse" gradientTransform="translate(725.138 19.154) scale(.27943)" id="x"><stop offset="0" stop-color="#7b7979"/><stop offset=".179" stop-color="#bdbcbc"/><stop offset="1" stop-color="#444041"/></linearGradient><linearGradient x1="152.355" y1="224.878" x2="153.432" y2="222.51" gradientUnits="userSpaceOnUse" gradientTransform="translate(725.138 19.154) scale(.27943)" id="y"><stop offset="0" stop-color="#fff"/><stop offset=".115" stop-color="#eee"/><stop offset=".907" stop-color="#5a5758"/><stop offset="1" stop-color="#5a5758"/></linearGradient><clipPath id="ac"><path d="M734.331 28.346h79.212V84.22h-79.212V28.346z"/></clipPath><linearGradient x1="138.748" y1="200.446" x2="178.752" y2="200.446" gradientUnits="userSpaceOnUse" gradientTransform="translate(725.138 19.154) scale(.27943)" id="z"><stop offset="0" stop-color="#fff"/><stop offset=".98" stop-color="#231f20"/><stop offset=".98" stop-color="#231f20"/><stop offset="1" stop-color="#231f20"/></linearGradient><linearGradient x1="136.133" y1="101.237" x2="150.961" y2="153.681" gradientUnits="userSpaceOnUse" gradientTransform="translate(725.138 19.154) scale(.27943)" id="A"><stop offset="0" stop-color="#e9e9e9"/><stop offset=".066" stop-color="#5a5758"/><stop offset=".352" stop-color="#918f90"/><stop offset=".604" stop-color="#b7b5b6"/><stop offset=".959" stop-color="#706d6e"/><stop offset="1" stop-color="#b2b1b1"/></linearGradient><clipPath id="af"><path d="M734.331 28.346h79.212V84.22h-79.212V28.346z"/></clipPath><linearGradient xlink:href="#a" id="C" gradientUnits="userSpaceOnUse" gradientTransform="translate(725.138 19.154) scale(.27943)" x1="231.088" y1="213.375" x2="188.729" y2="148.497"/><linearGradient xlink:href="#b" id="D" gradientUnits="userSpaceOnUse" gradientTransform="translate(725.138 19.154) scale(.27943)" x1="112.045" y1="166.301" x2="119.725" y2="183.891"/><linearGradient xlink:href="#c" id="E" gradientUnits="userSpaceOnUse" gradientTransform="translate(725.138 19.154) scale(.27943)" x1="216.937" y1="208.542" x2="207.509" y2="209.433"/><linearGradient xlink:href="#d" id="F" gradientUnits="userSpaceOnUse" gradientTransform="translate(725.138 19.154) scale(.27943)" x1="131.957" y1="157.35" x2="139.603" y2="174.862"/><linearGradient xlink:href="#e" id="G" gradientUnits="userSpaceOnUse" gradientTransform="translate(725.138 19.154) scale(.27943)" x1="207.619" y1="73.15" x2="68.775" y2="214.4"/><radialGradient xlink:href="#f" id="H" gradientUnits="userSpaceOnUse" gradientTransform="translate(725.138 19.154) scale(.27943)" spreadMethod="pad" cx="147.383" cy="196.201" fx="147.383" fy="196.201" r="31.581"/><radialGradient xlink:href="#g" id="I" gradientUnits="userSpaceOnUse" gradientTransform="matrix(.27943 0 0 .26927 725.138 24.762)" spreadMethod="pad" cx="154.475" cy="189.206" fx="154.475" fy="189.206" r="11.153"/><radialGradient xlink:href="#h" id="J" gradientUnits="userSpaceOnUse" gradientTransform="translate(725.138 19.154) scale(.27943)" spreadMethod="pad" cx="147.486" cy="219.954" fx="147.486" fy="219.954" r="13.143"/><radialGradient xlink:href="#i" id="K" gradientUnits="userSpaceOnUse" gradientTransform="translate(725.138 19.154) scale(.27943)" spreadMethod="pad" cx="169.539" cy="194.333" fx="169.539" fy="194.333" r="43.539"/><linearGradient xlink:href="#j" id="L" gradientUnits="userSpaceOnUse" gradientTransform="translate(725.138 19.154) scale(.27943)" x1="138.567" y1="169.025" x2="117.007" y2="163.635"/><linearGradient xlink:href="#k" id="N" gradientUnits="userSpaceOnUse" gradientTransform="translate(643.669 95.584) scale(.12248)" x1="979.119" y1="-114.084" x2="1205.83" y2="-390.298"/><linearGradient xlink:href="#l" id="O" gradientUnits="userSpaceOnUse" gradientTransform="translate(725.138 19.154) scale(.27943)" x1="112.229" y1="200.091" x2="213.898" y2="103.525"/><linearGradient xlink:href="#m" id="P" gradientUnits="userSpaceOnUse" gradientTransform="translate(725.138 19.154) scale(.27943)" x1="161.073" y1="153.416" x2="121.641" y2="94.465"/><linearGradient xlink:href="#n" id="Q" gradientUnits="userSpaceOnUse" gradientTransform="translate(725.138 19.154) scale(.27943)" x1="156.856" y1="122.493" x2="167.226" y2="116.385"/><linearGradient xlink:href="#o" id="R" gradientUnits="userSpaceOnUse" gradientTransform="translate(725.138 19.154) scale(.27943)" x1="162.557" y1="150.942" x2="173.545" y2="164.097"/><linearGradient xlink:href="#p" id="S" gradientUnits="userSpaceOnUse" gradientTransform="translate(725.138 19.154) scale(.27943)" x1="186.975" y1="224.346" x2="201.3" y2="209.691"/><linearGradient xlink:href="#q" id="T" gradientUnits="userSpaceOnUse" gradientTransform="translate(725.138 19.154) scale(.27943)" x1="188.748" y1="163.34" x2="205.044" y2="174.039"/><linearGradient xlink:href="#r" id="U" gradientUnits="userSpaceOnUse" gradientTransform="translate(725.138 19.154) scale(.27943)" x1="201.762" y1="215.475" x2="223.172" y2="215.475"/><linearGradient xlink:href="#s" id="V" gradientUnits="userSpaceOnUse" gradientTransform="translate(725.138 19.154) scale(.27943)" x1="114.376" y1="104.141" x2="163.744" y2="104.141"/><linearGradient xlink:href="#t" id="W" gradientUnits="userSpaceOnUse" gradientTransform="translate(725.138 19.154) scale(.27943)" x1="177.193" y1="123.087" x2="199.273" y2="123.087"/><linearGradient xlink:href="#u" id="X" gradientUnits="userSpaceOnUse" gradientTransform="translate(725.138 19.154) scale(.27943)" x1="191.977" y1="120.12" x2="232.533" y2="120.12"/><linearGradient xlink:href="#v" id="Y" gradientUnits="userSpaceOnUse" gradientTransform="translate(725.138 19.154) scale(.27943)" x1="112.208" y1="159.734" x2="154.483" y2="159.734"/><linearGradient xlink:href="#w" id="Z" gradientUnits="userSpaceOnUse" gradientTransform="translate(725.138 19.154) scale(.27943)" x1="113.141" y1="185.773" x2="127.816" y2="185.773"/><linearGradient xlink:href="#x" id="aa" gradientUnits="userSpaceOnUse" gradientTransform="translate(725.138 19.154) scale(.27943)" x1="100.288" y1="163.527" x2="110.19" y2="163.527"/><linearGradient xlink:href="#y" id="ab" gradientUnits="userSpaceOnUse" gradientTransform="translate(725.138 19.154) scale(.27943)" x1="152.355" y1="224.878" x2="153.432" y2="222.51"/><linearGradient xlink:href="#z" id="ad" gradientUnits="userSpaceOnUse" gradientTransform="translate(725.138 19.154) scale(.27943)" x1="138.748" y1="200.446" x2="178.752" y2="200.446"/><linearGradient xlink:href="#A" id="ae" gradientUnits="userSpaceOnUse" gradientTransform="translate(725.138 19.154) scale(.27943)" x1="136.133" y1="101.237" x2="150.961" y2="153.681"/></defs><g clip-path="url(#B)" transform="matrix(4.8193 0 0 -4.8193 -3536.966 406.957)"><path d="M790.361 47.464c-.734 2.19-3.693 7.684-6.019 10.776-.503.674-.315 1.02-.046 1.238.268.218 1.134.966 2.158 2.138 1.035 1.183 1.284 2.521.552 4.456-.728 1.917-3.133 6.473-3.638 7.983-.579 1.74-.637 2.515-.288 3.463.411 1.117 1.011 1.164 1.463 1.157.243-.005.425-.26.426-.378.012-.492.037-1.1.517-2.372.767-2.025 2.734-3.348 3.355-3.615.432-.187.51.148.472.31l-1.16 4.556c-.503 1.977-.756 2.406-1.203 2.825-.712.676-1.795 1.038-2.71 1.003-2.044-.08-2.947-2.054-3.059-2.237-.097-.164-.135-.279-.343-.135-.584.408-2.29 1.833-2.447 2.725-.092.528-.184.601-.71.806-2.05.8-3.827 1.503-5.793 1.85-.788.14-.83.207-1.75.036-1.562-.292-2.52-.652-3.693-1.267-.647-.343-.722-.573-.848-.735-.097-.128-.202-.28-.436-.357-.39-.127-1.839-.667-2.336-.956-.31-.18-.479-.37-.32-.72.278-.618 1.112-1.906 1.476-2.23.221-.195.775-.33.907-.358.131-.032.224-.07.273.028.054.108.074.265.334.447.39.273 1.112.462 1.497.496.295.025.475.034.627-.075.151-.11.5-.483.621-.857s.045-.514-.164-.602c-.21-.088-.838-.23-1.566-.289-.725-.059-.932.142-.983.187-.038.041-.134.103-.208.005-.122-.17-.305-.28-.589-.42-.16-.079-.247-.25-.094-.517.462-.799 1.071-1.697 1.636-1.868.45-.14.691.007 1.197.368.452.327.746.325.87.234.136-.102.41-.333.34-.564-.12-.4-.93-1.358-1.085-1.555-.146-.186-.284-.286-.545-.16-.383.182-6.188 3.194-6.964 3.496-.845.325-1.4.404-2.232.442a10.98 10.98 0 0 1-2.133-.137c-.41-.076-.643-.27-1.025-.623-.526-.486-1.08-1.107-1.133-1.625-.038-.373.377-1.133.422-1.186.045-.057.122-.162.347-.137.23.025.803.324 1.49.205.62-.108.683-.596.715-.97a.252.252 0 0 1 .26-.206c.246.003.633-.005 1.08-.219.551-.26 1.641-1.106 1.81-1.293.135-.153.126-.29-.133-.316-1.385-.123-3.492-.534-4.466-.854-.692-.226-1.508-.537-1.796-1.038-.327-.568-.74-1.479-.858-2.13-.119-.647.574-1.45.76-1.629.124-.12.21-.197.43-.076.338.194 1.157.7 1.941.746.476.027.666-.42.78-.585.115-.162.225-.05.651.065.755.203 4.967.126 6.454.056.68-.029 1.626-.13 2.322-.514.692-.38 1.945-1.564 1.945-1.564s-1.664-2.79-2.56-4.444c-.83-1.528-1.435-2.676-1.734-3.34-.275-.609-.499-1.47-.45-2.15.075-.994.101-1.504.09-1.954-.014-.396-.383-.439-.906-.568-.722-.184-2.16-.316-3.327-.603-1.06-.264-1.455-.514-1.647-1.333-.148-.638-.367-2.223-.393-2.958-.012-.296-.017-.44.36-.363.215.042.84.132 1.633.19.984.075 2.05.06 2.872.062 1.515.01 5.987-.252 6.288-.282.382-.038.46.01.434.276a39.738 39.738 0 0 0-.117 2.146c-.019.673-.12 1.354.486 2.008.603.656 5.161 5.738 5.413 6 .221.22.37.456.707.146.343-.315 4.095-3.02 4.858-3.573.762-.553 1.471-.74 2.34-.753.618-.01.791-1.09.264-1.193a64.544 64.544 0 0 1-1.94-.404c-.888-.208-1.16-.497-1.427-1.096-.229-.505-.48-2.988-.488-3.203-.007-.154-.016-.378.228-.327 1.095.222 2.831.285 4.688.227 2.131-.066 4.201-.242 4.491-.259.314-.022.344.025.502.27.27.421 1.071 1.348 1.77 1.92.348.284.355.402.21.83m-8.187 15.013c-.54-.177-.893-.024-1.156.227-.265.252-2.415 2.84-3.107 3.631-.348.4-.609 1.31.44 1.698.86.313 2.402.808 2.83 1.034.43.226.654.458.695.897.034.441.038.936.04 1.101.003.166.218.3.328.104.076-.138.462-.89.933-1.762.704-1.308 1.592-2.943 1.881-3.646.273-.67.14-1.183-.277-1.699-.564-.698-2.21-1.456-2.607-1.585" fill="#231f20"/></g><path d="M784.373 80.601c-1.678.008-3.378-1.937-3.054-4.837.201-1.776.472-2.585.998-3.733.262-.566 3.126-6.021 3.259-6.598.178-.826.02-1.342-.614-1.919-.701-.634-1.86-1.354-2.642-1.623a1.604 1.604 0 0 0-.51-.095c-.177 0-.62.061-1.458 1.093l3.702-4.939c-.473.632-.717 1.109-.631 1.527.085.413.76.863 1.534 1.474.778.603 1.638 1.366 2.032 2.397.115.294.165.598.165.917 0 .985-.477 2.1-1.052 3.31-.74 1.568-2.838 4.991-3.476 7.39a6.274 6.274 0 0 0-.226 1.589c0 1.36.579 2.222 1.287 2.516.339.136.644.183.896.183.39 0 .661-.109.771-.166.198-.113.228-.35.228-.537v-.041a6.281 6.281 0 0 1-.006-.293c0-.559.075-1.789.726-2.983.824-1.515 2.205-2.361 2.749-2.589.047-.02-1.272 4.865-1.508 5.786-.274 1.074-1.031 2.15-3.15 2.171a.02.02 0 0 1-.008.001l-.012-.001" fill="url(#C)" transform="matrix(4.8193 0 0 -4.8193 -3536.966 406.957)"/><path d="M761.337 69.748c.323-.324-.239-.306-1.945-.453-1.739-.152-3.489-.503-4.405-.846-.669-.252-1.074-.431-1.342-1.045 0 0-.557-1.21-.631-1.688-.037-.227-.024-.356.094-.546.065-.102.225 3.153 4.425 3.367 3.716.19 4.63.579 3.904 1.29l-.1-.079z" fill="url(#D)" transform="matrix(4.8193 0 0 -4.8193 -3536.966 406.957)"/><path d="M784.564 79.105c-.227 0-.5-.041-.808-.169-.585-.237-1.123-.972-1.148-2.223l.007-.285s.08.851.23 1.251c.373 1.084 1.068 1.309 1.546 1.309.317 0 .463-.076.599-.22.105-.115.176-.221.189-.384.012-.484.03-1.04.5-2.294.029-.076.059-.152.091-.225a6.74 6.74 0 0 0-.447 2.432c-.001.154.007.333.007.334.002.366-.4.474-.761.474h-.005" fill="url(#E)" transform="matrix(4.8193 0 0 -4.8193 -3536.966 406.957)"/><path d="M761.483 69.606c.127-.343-.375-.262-2.081-.41-1.739-.152-3.49-.488-4.406-.832-.671-.253-1.075-.43-1.343-1.046 0 0-.557-1.21-.633-1.688-.035-.225.021-.357.14-.546.178-.281.292-.342.552-.192.211.12 1.14.647 1.748.658.556.013.799-.326.881-.615.05-.18.295-.087.337-.076.244.061.481.134 1.349.198 1.032.075 5.058.04 6.535.006 1.329-.031 6.563-4.137 6.641-4.158l.263.532c-1.778 1.469-8.383 6.707-9.981 8.268l-.002-.099z" fill="url(#F)" transform="matrix(4.8193 0 0 -4.8193 -3536.966 406.957)"/><path d="M756.198 75.679c-.328-.041-.552-.057-.897-.379-.34-.316-.931-.746-1.16-1.183-.088-.166-.132-.281-.109-.431.034-.214.134-.438.192-.508.062-.075.146-.11.32-.062.352.095.978.177 1.357.167.27-.005.659-.073.837-.277.239-.278.223-.507.23-.627.001-.052.02-.153.135-.17.237-.033.495-.033.77-.095.772-.169 1.812-.828 2.782-1.72 1.879-1.735 4.215-4.33 6.455-6.119 1.134-.901 2.992-2.031 3.606-2.646.113-.114-.132-.199-.318-.104-.085.042-1.141.87-1.371.928-.196.048-.4 0-.601-.281-1.757-2.427-3.779-6.501-4.603-8.432-.193-.459-.359-1.035-.334-1.555.026-.522.081-1.563.09-2.052.005-.478-.112-.671-.681-.762-1.044-.161-3.363-.578-3.954-.723-.445-.107-.818-.31-.99-.826-.247-.748-.446-1.899-.464-2.179-.012-.173.049-.293.251-.243.85.214 2.165.387 3.976.351 1.812-.039 5.041-.358 5.459-.396.145-.012.319-.014.317.153-.004.193-.05 1.067-.064 2.183-.011 1.115.96 1.933 2.306 3.328 1.349 1.4 4.602 4.607 4.725 4.719.081.081.168.159.004.319-.228.218-1.266 1.289-1.384 1.412-.059.066-.192.232-.14.289.048.059.173-.036.333-.168.629-.511 7.506-6.049 7.985-6.264.49-.214.788-.278 1.227-.355.33-.06.619-.548.666-.911.048-.364.026-.846-.481-.971-.505-.126-1.754-.358-2.194-.479-.442-.122-.739-.32-.927-.826-.19-.51-.437-1.894-.442-2.012-.005-.306.075-.33.31-.272.29.068.631.165 1.945.209 2.214.079 5.581-.207 6.015-.241.148-.014.27.137.322.229.469.81.336 1.017.966 1.529.327.262.483.314.278.78-2.057 4.682-4.011 7.859-7.179 11.916a298.107 298.107 0 0 1-5.199 6.439l-9.558 5.468c-.566.269-4.986 2.531-5.747 2.909-.763.376-1.378.685-2.158.86a7.201 7.201 0 0 1-1.593.167c-.48 0-.926-.039-1.311-.086" fill="url(#G)" transform="matrix(4.8193 0 0 -4.8193 -3536.966 406.957)"/><path d="M766.853 80.162c-1.375-.37-3.133-1.087-3.197-1.122-.037-.024-.031-.059-.012-.101.016-.037.2-.355.2-.355s.092-.216.358-.365c.263-.149.522-.211.588-.227.069-.014.1.015.124.051.02.03.279.527 1.231.774.515.13.842.145 1.001.145.248-.006.632-.128.846-.337.348-.343.653-.911.705-1.183.056-.264.012-.593-.251-.73-.264-.134-1.032-.316-1.515-.364-.5-.05-.986-.025-1.275.141-.045.025-.078.03-.122-.005-.109-.091-.175-.165-.388-.292-.049-.028-.079-.088-.033-.18s.649-1.093 1.015-1.362c.363-.272.557-.15.992.091.437.241.732.536 1.184.521.459-.012.848-.402.919-.855.086-.551-.267-.91-.482-1.25-.21-.333-.641-.829-.863-1.107-.282-.356-.82-.247-.82-.247s2.546-1.294 4.011-2.03c.58-.294 1.491-.021 2.109 1.136.144.269 1.06 2.207 1.289 2.784.23.575.555 1.214.032 2.313-.525 1.095-2.151 3.121-2.798 3.898-.34.406-.739.655-1.597.701a6.396 6.396 0 0 1-.345.009c-.784 0-1.732-.135-2.906-.452" fill="url(#H)" transform="matrix(4.8193 0 0 -4.8193 -3536.966 406.957)"/><path d="M766.924 76.276c-.49-.045-.966-.023-1.249.13-.044.023-.076.027-.119-.004-.108-.085-.172-.153-.381-.27-.047-.025-.078-.081-.031-.166.044-.085.589-1 .959-1.262.37-.267.567-.147 1.01.089.444.236.744.524 1.203.51l.092 1.31c-.257-.125-1.011-.293-1.484-.337" fill="url(#I)" transform="matrix(4.8193 0 0 -4.8193 -3536.966 406.957)"/><path d="M763.748 78.994c-.035-.023-.03-.094-.012-.131.016-.034.191-.323.191-.323s.087-.197.339-.332c.25-.134.458-.2.524-.216.069-.014.1.015.124.051.02.03.279.527 1.231.774.515.13.842.145 1.001.145l-.361 1.052c-1.307-.337-2.977-.988-3.037-1.02" fill="url(#J)" transform="matrix(4.8193 0 0 -4.8193 -3536.966 406.957)"/><path d="M768.75 73.041c-.209-.332-.642-.829-.863-1.106-.282-.356-.692-.201-.692-.201s2.409-1.225 3.874-1.961c.58-.294 1.457-.094 2.075 1.064.144.268 1.061 2.207 1.288 2.783l-5.2.708c.086-.55-.268-.947-.482-1.287" fill="url(#K)" transform="matrix(4.8193 0 0 -4.8193 -3536.966 406.957)"/><path d="M760.904 66.593c-.615-.035-2.064-.169-2.477-.262-.401-.095-1.066-.636-1.154-.73-.151-.158-.148-.291-.036-.336.096-.037.306-.005.477.009.507.044 1.888.087 3.452.089.811.001 1.694-.008 2.391-.017.725-.01 1.249-.019 1.285-.016-.603.656-1.115 1.453-1.318 1.463h-.017c-.288 0-2.433-.191-2.603-.2" fill="url(#L)" transform="matrix(4.8193 0 0 -4.8193 -3536.966 406.957)"/><g clip-path="url(#M)" transform="matrix(4.8193 0 0 -4.8193 -3536.966 406.957)"><path d="M757.225 65.237l.011.028-.01-.028a.148.148 0 0 0-.1.142c0 .073.042.155.125.242.094.1.753.64 1.17.74.418.093 1.863.226 2.481.261.17.01 2.31.2 2.604.201h.02c.068-.006.138-.063.226-.15a4.77 4.77 0 0 0 .304-.35c.23-.284.507-.647.807-.973l.043-.046-.063-.005h-.033c-.255 0-1.919.034-3.423.034h-.22c-1.565-.003-2.945-.046-3.45-.089-.112-.01-.24-.027-.346-.027a.426.426 0 0 0-.146.02m.146.041c.1 0 .227.016.34.026.51.044 1.89.086 3.455.09h.221c1.445 0 3.038-.032 3.386-.035-.435.482-.818 1.025-1.064 1.271-.083.086-.154.132-.187.132h-.016c-.286 0-2.43-.19-2.6-.2-.615-.035-2.065-.168-2.472-.26-.387-.089-1.059-.634-1.139-.722-.077-.08-.109-.153-.109-.2.001-.043.02-.068.062-.087a.359.359 0 0 1 .123-.015" fill="#7f7d7e"/></g><path d="M766.59 82.265c-.54-.328-.563-.73-.942-.95-.376-.22-1.242-.417-2.152-.824-.503-.224-.505-.261-.385-.544.047-.118.374-.713.54-.713.164-.005.363.08.564.161.269.106 2.063.801 3.488 1.105 1.587.34 3.293.369 3.899-.272.922-.976 2.54-3.163 3.03-4.111.483-.939.434-1.395.113-2.357-.295-.891-1.413-3.203-1.742-3.682-.331-.48-.731-.746-1.688-.355-1.026.422-4.805 2.361-5.627 2.776-.556.28-2.891 1.463-4.659 2.349-.651.328-1.19.566-1.777.714-1.3.331-2.696.182-3.34.076-.294-.049-.477-.521-.464-.713.012-.157.315-.137.683-.117.19.011.397.022.592.008.46-.032 2.035-.202 2.944-.571.96-.388 5.766-2.977 6.979-3.629 9.245-5.031 13.201-8.269 20.346-20.276.319-.537.473-1.195-.032-1.345-.732-.213-3.779-.794-4.701-1.096-.775-.255-.878-.316-.991-.699-.127-.438-.324-1.304-.277-1.479.02-.072-.041-.165.116-.165.857 0 3.932-.003 6.301-.227.286-.03.302-.023.482.25.207.318 1.027 1.256 1.566 1.655.226.168.074.481.037.583-.677 1.705-2.59 5.404-5.209 9.251-2.571 3.785-6.929 8.91-7.531 9.761-.589.835-.82 1.774.408 2.161.802.255 2.733.655 3.523.876.769.211.825.46.889 1.055.065.643-.11 3.765-.497 5.625-.081.386-.34.708-.65.928-.275.191-1.335 1.116-1.921 1.785-.674.769-.98 1.494-1.09 2.052 0 0-.019.119-.151.244a.635.635 0 0 1-.17.125c-1.155.711-5.238 1.827-6.071 1.899a1.785 1.785 0 0 1-.158.006c-.724.001-2.575-.299-4.275-1.32" fill="url(#N)" transform="matrix(4.8193 0 0 -4.8193 -3536.966 406.957)"/><path d="M755.657 74.757c.286 0 .953.021 1.4-.028.861-.095 1.947-.333 2.631-.597.969-.377 5.522-3.091 6.699-3.749 3.546-2.01 6.242-3.858 8.772-5.896 3.868-3.116 7.207-6.729 11.393-14.06.165-.284.253-.502.253-.768.015-.409-.337-.557-.456-.589-.721-.217-3.676-.883-4.551-1.185-.743-.262-.881-.427-.987-.771-.039-.144-.165-.841-.312-1.027-.146-.19-.487-.229-.849-.229-.223 0-.334-.013-.311.235.021.247.168.918.252 1.303.083.387.244.677.596.889.352.215 1.577.413 2.267.582.687.169.726.489.713 1.008 0-.55-.191-.684-.883-.839-.702-.156-1.881-.308-2.269-.574-.377-.256-.523-.614-.593-.897-.235-.98-.396-1.697-.369-1.938.023-.214.108-.244.347-.217.238.027.832.111 1.723.144.264 0 .246.321.243.675 0 .128.006.51.072.697a.669.669 0 0 0 .433.426c.495.154 3.241.895 4.636 1.311.611.182.867.376.811.932-.049.489-.496 1.214-1.291 2.458-.8 1.254-1.805 2.966-3.143 4.86-2.376 3.364-4.715 5.99-7.621 8.289-2.147 1.697-4.398 3.058-6.05 4.025-1.652.968-8.626 4.783-9.708 5.122-.983.308-1.764.409-2.463.48-.476.048-.873.013-1.295.013-.4 0-.259.324-.203.453-.042-.092-.281-.538.113-.538" fill="url(#O)" transform="matrix(4.8193 0 0 -4.8193 -3536.966 406.957)"/><path d="M768.366 62.179c-.267-.323-1.635-2.495-2.745-4.525-.803-1.47-1.765-3.554-1.952-4.059-.171-.46-.202-.883-.186-1.401.017-.515.103-1.352.132-1.954.03-.576-.117-.831-.717-.94-.509-.091-3.213-.545-3.879-.707-.668-.162-.877-.493-1.007-.982-.132-.488-.323-1.413-.331-1.625-.005-.206.021-.247.214-.221.192.027.601.063.767.075.174.012.139.141.191.324.049.164.084.44.184.865.099.424.233.754.82.927.588.174 3.248.602 3.698.725.449.125.737.318.786.768.051.446-.041 1.4-.054 2.175-.012.813-.022 1.175.435 2.054.883 1.686 3.625 5.678 5.476 7.989 0 0-.174.129-.394.289-.273.2-.619.447-.81.508a.56.56 0 0 1-.163.027c-.172 0-.298-.107-.465-.312" fill="url(#P)" transform="matrix(4.8193 0 0 -4.8193 -3536.966 406.957)"/><path d="M768.023 50.516c-.499-1.097-.641-1.722-.641-2.266 0-.473.048-.64.048-.64-.024.479.154.917.458 1.356.409.588 1.041 1.188 1.816 1.993 1.357 1.408 4.666 4.647 4.785 4.764.074.075.163.18-.02.357-.328.314-.5.516-1.017 1.034-.315.316-.534.507-.522.617-.012 0-3.7-4.147-4.907-7.215" fill="url(#Q)" transform="matrix(4.8193 0 0 -4.8193 -3536.966 406.957)"/><path d="M755.705 74.757l30.579-25.707c.311.068.503.294.518.514.018.251-.032.48-.198.769-4.255 7.434-7.441 10.905-11.32 14.039a61.535 61.535 0 0 1-2.058 1.609c-1.964 1.456-4.121 2.856-6.732 4.341-.749.42-2.86 1.664-4.551 2.62-.975.551-1.811 1.006-2.164 1.152-.678.284-1.754.515-2.631.624a7.202 7.202 0 0 1-.884.043c-.181 0-.368-.003-.559-.004" fill="url(#R)" transform="matrix(4.8193 0 0 -4.8193 -3536.966 406.957)"/><path d="M777.289 81.956c.082-.049.159-.098.218-.16.205-.193.251-.383.257-.424.101-.502.379-1.176 1.017-1.903.549-.633 1.683-1.57 1.92-1.736.151-.102.3-.205.426-.346.073.38.193.799.363 1.209-.028-.044-.055-.103-.106-.168a.452.452 0 0 0-.341-.186h-.018a.578.578 0 0 0-.338.124c-.613.457-2.331 1.793-2.578 2.926-.155.531.04.289-.512.568-.154.061-.302.121-.454.177.052-.027.102-.054.146-.081" fill="url(#S)" transform="matrix(4.8193 0 0 -4.8193 -3536.966 406.957)"/><path d="M780.859 69.549c-.808-.222-2.8-.628-3.568-.867-.572-.207-.645-.389-.663-.675v-.003c0-.265.122-.678.379-1.032.297-.425 1.739-2.063 3.345-4.083a5.9 5.9 0 0 1 .416-.468c-.059.077-2.328 2.948-3.024 3.741-.198.233-.425.545-.428.955-.002.408.311.99.957 1.213.863.315 2.433.824 2.79 1.018.347.2.451.287.502.524-.179-.145-.411-.24-.706-.323" fill="url(#T)" transform="matrix(4.8193 0 0 -4.8193 -3536.966 406.957)"/><path d="M784.384 80.644c-1.533-.036-2.566-1.338-2.865-2.555.311 1.088 1.301 2.373 2.872 2.373 1.998 0 2.831-.755 3.111-1.88-.348 1.549-1.675 2.063-2.998 2.063l-.12-.001" fill="url(#U)" transform="matrix(4.8193 0 0 -4.8193 -3536.966 406.957)"/><path d="M769.957 50.793c-1.549-1.584-2.251-2.076-2.22-3.061.019-.58.065-2.011.067-2.224 0-.145.014-.284-.231-.412-.12-.065-.329-.065-.435-.065-.422 0-4.502.398-5.934.398-1.432 0-2.66-.159-3.398-.344-.121-.028-.43-.009-.555.176a.549.549 0 0 0-.094.279 9.003 9.003 0 0 1-.057-.746c.257.05.865.134 1.648.193 1.003.079 2.139.065 2.895.065.757 0 6.373-.291 6.394-.292a46.095 46.095 0 0 0-.109 2.1l-.019.623c0 .502.096 1.088.59 1.611.266.289 1.301 1.437 2.396 2.656-.359-.362-.683-.695-.938-.957" fill="url(#V)" transform="matrix(4.8193 0 0 -4.8193 -3536.966 406.957)"/><path d="M774.653 55.485a.802.802 0 0 0 .419-.226c.291-.269 4.076-3.007 4.828-3.549a3.65 3.65 0 0 1 .923-.495c-.257.18-.636.468-1.133.85a352.368 352.368 0 0 0-4.82 3.819.496.496 0 0 0-.217-.399" fill="url(#W)" transform="matrix(4.8193 0 0 -4.8193 -3536.966 406.957)"/><path d="M783.73 59.417a1.053 1.053 0 0 1-.088-.421c0-.235.076-.561.378-.997.181-.256.356-.509.524-.752 2.63-3.872 4.463-7.616 5.156-9.364.152-.423.121-.632-.016-.821 0 0-1.369-1.401-1.534-1.663-.071-.105-.124-.193-.219-.275-.093-.085-.335-.139-.564-.12-2.023.189-4.219.27-5.32.27-1.432 0-2.267-.139-2.743-.151-.258-.007-.438.053-.469.096-.004.007-.007.013-.013.019-.02-.201-.033-.352-.038-.42.867.157 2.036.223 3.334.223.412 0 .836-.007 1.271-.018 2.135-.066 4.617-.263 4.623-.263.006.003 1.191 1.513 1.925 2.122.13.103.18.095.18.196 0 .069-.038.198-.101.374-.764 2.187-3.676 7.588-5.94 10.59-.216.287-.36.67-.36.937-.001.347.18.6.366.744.156.129.541.457 1.045.958-.782-.587-1.33-1.053-1.397-1.264" fill="url(#X)" transform="matrix(4.8193 0 0 -4.8193 -3536.966 406.957)"/><path d="M757.997 64.805c-.862-.063-1.281-.167-1.365-.188-.084-.019-.135-.013-.139-.013.021-.034.054-.099.07-.125.022.008.055.021.119.039.519.148 1.675.218 3.118.223 1.375 0 2.877-.01 3.655-.047.696-.033 1.679-.127 2.464-.556.73-.407 2.313-1.505 2.388-1.439-.642.453-1.322.913-1.938 1.289-.812.509-1.584.86-1.814.853-2.47.039-2.47.039-3.924.039-1.132 0-2.207-.043-2.634-.075" fill="url(#Y)" transform="matrix(4.8193 0 0 -4.8193 -3536.966 406.957)"/><path d="M756.897 71.856c.038-.004.095-.002.165-.001.237.006.629.01.985-.16.628-.311 2.225-1.491 2.471-1.747.301-.348.605-.313.337-.081-.936.87-2.353 1.873-3.019 2.011-.235.054-.564.08-.833.091-.204.013-.189.252-.249.296.007-.042.019-.401.143-.409" fill="url(#Z)" transform="matrix(4.8193 0 0 -4.8193 -3536.966 406.957)"/><path d="M755.428 65.299c-.441-.009-1.559-.565-1.73-.677-.26-.145-.373-.149-.536.03.075-.181.201-.29.315-.252.115.04 1.456.738 2.05.738.193 0 .25-.005.403-.067-.092.156-.194.229-.472.229l-.03-.001" fill="url(#aa)" transform="matrix(4.8193 0 0 -4.8193 -3536.966 406.957)"/><path d="M768.524 82.146c-.304-.049-1.277-.311-1.379-.346a.349.349 0 0 1-.23-.18.735.735 0 0 1-.07-.445c.029-.097.127-.169.277-.106.206.086 1.411.529 1.623.596.092.031.13.077.148.125.031.079.04.183.031.265-.012.094-.072.122-.159.122-.067 0-.151-.017-.241-.031" fill="url(#ab)" transform="matrix(4.8193 0 0 -4.8193 -3536.966 406.957)"/><g clip-path="url(#ac)" transform="matrix(4.8193 0 0 -4.8193 -3536.966 406.957)"><path d="M768.49 82.043c.135.024.2.011.208-.063a.602.602 0 0 0-.005-.154c-.008-.04-.024-.063-.091-.088a43.834 43.834 0 0 1-1.231-.45c-.195-.083-.294-.037-.311.044a.49.49 0 0 0 .047.274.27.27 0 0 0 .158.12c.159.057.976.271 1.225.317" fill="#231f20"/></g><path d="M769.804 80.768c-2.496-.065-4.672-1.122-5.894-1.622.871.299 2.987 1.166 5.347 1.307 1.297.079 1.817-.031 2.292-.564.69-.76 2.296-2.917 2.868-4.012.226-.434.326-.823.296-1.155-.046-.503-.226-.872-.368-1.203-.249-.571-1.168-2.438-1.327-2.709-.669-1.159-1.31-1.119-1.992-.961.035-.019.348-.167.635-.283.794-.325 1.297.126 1.751.979.147.266 1.122 2.328 1.357 2.923.149.373.32.743.32 1.217 0 .31-.086.787-.298 1.229-.537 1.132-2.236 3.283-2.914 4.094-.526.622-1.006.763-1.835.763a9.81 9.81 0 0 1-.238-.003" fill="url(#ad)" transform="matrix(4.8193 0 0 -4.8193 -3536.966 406.957)"/><path d="M766.86 57.344c-.886-1.41-2.163-3.514-2.363-3.977-.185-.425-.245-.812-.251-1.314l.073-2.289c0-.281-.042-.511-.192-.689-.153-.176-.384-.263-.704-.309-.526-.076-3.007-.459-3.689-.598-.661-.142-.935-.446-1.082-.885-.107-.316-.229-.853-.227-1.089 0 0-.009-.129 0-.129-.019-.251.071-.237.071-.237s2.872.221 4.581.119c1.71-.1 4.069-.323 4.069-.323s-2.483.464-4.172.569c-.842.05-1.822.03-2.594.009-.776-.02-1.344-.041-1.354.011-.015.07-.058.177-.04.384.028.134.063.287.11.448.11.42.306.79.96.942.627.159 3.038.558 3.495.67.452.114.745.282.807.651.017.113.032.367.031.602 0 .485-.086 1.77-.083 1.85.015.791.05 1.209.567 2.064.801 1.332 3.817 5.917 5.317 7.508.096.101.14.187.306.16a.435.435 0 0 0-.098.033c-.026.013-.146.102-.304.219-.374-.422-2.059-2.526-3.234-4.4" fill="url(#ae)" transform="matrix(4.8193 0 0 -4.8193 -3536.966 406.957)"/><g clip-path="url(#af)" transform="matrix(4.8193 0 0 -4.8193 -3536.966 406.957)"><path d="M734.33 35.252v-6.693h1.844v2.059h1.65c3.54 0 5.345 1.136 5.345 2.392 0 1.349-1.937 2.242-5.184 2.242h-3.654m1.843-3.912v3.165h1.45c1.498 0 3.475-.253 3.475-1.495 0-.843-.642-1.67-3.715-1.67h-1.21zm17.504-2.781v.842h-4.542c-.976 0-1.257.442-1.257 1.19v.98h5.331v.84h-5.331v2.001h5.572v.84h-7.415v-4.701c0-1.257.521-1.992 2.218-1.992h5.424zm11.795 6.693h-1.843v-5.65c-.508-.175-1.188-.334-2.178-.334-1.416 0-2.82.36-2.82 1.604v4.38h-1.842v-4.514c0-1.845 1.843-2.391 3.874-2.391 1.937 0 3.514.4 4.809.947v5.958zm5.125-3.365c0 1.857 1.577 2.727 3.5 2.727 1.576 0 2.793-.455 3.942-.844v1.123c-1.216.359-2.366.56-3.942.56-3.085 0-5.597-1.415-5.597-3.566 0-2.273 2.512-3.54 5.597-3.54 1.538 0 3.154.319 4.143.572v2.653h-1.817v-1.984c-.668-.226-1.15-.401-2.191-.401-2.098 0-3.635 1.04-3.635 2.7m18.643-3.328v.842h-4.544c-.974 0-1.255.442-1.255 1.19v.98h5.332v.84h-5.332v2.001h5.572v.84H781.6v-4.701c0-1.257.52-1.992 2.217-1.992h5.425zm7.999 6.895c-3.086 0-5.61-1.443-5.61-3.602 0-2.264 2.524-3.505 5.61-3.505 3.086 0 5.597 1.24 5.597 3.505 0 2.159-2.51 3.602-5.598 3.602m0-6.36c-2.097 0-3.513 1.082-3.513 2.758 0 1.839 1.577 2.762 3.513 2.762 1.924 0 3.5-.923 3.5-2.762 0-1.676-1.416-2.758-3.5-2.758m7.111 5.198h3.674v-5.733h1.844v5.733h3.674v.96h-9.192v-.96z" fill="#0d224a"/></g></svg>